<?xml version="1.0" encoding="UTF-8" standalone="no"?>
<!DOCTYPE svg PUBLIC "-//W3C//DTD SVG 1.1//EN" "http://www.w3.org/Graphics/SVG/1.1/DTD/svg11.dtd">
<svg width="100%" height="100%" viewBox="0 0 3326 4632" version="1.1" xmlns="http://www.w3.org/2000/svg" xmlns:xlink="http://www.w3.org/1999/xlink" xml:space="preserve" xmlns:serif="http://www.serif.com/" style="fill-rule:evenodd;clip-rule:evenodd;stroke-miterlimit:10;">
    <g id="Artboard1" transform="matrix(1,0,0,1,-1466.69,-801.916)">
        <rect x="1466.69" y="801.916" width="3325.03" height="4631.73" style="fill:none;"/>
        <clipPath id="_clip1">
            <rect x="1466.69" y="801.916" width="3325.03" height="4631.73"/>
        </clipPath>
        <g clip-path="url(#_clip1)">
            <g id="Bcankround" transform="matrix(4.16667,0,0,4.16667,0.692922,0.915742)">
                <g transform="matrix(0.534469,0,0,0.743603,348.486,192.166)">
                    <rect x="0" y="0" width="1500" height="1500" style="fill:rgb(41,52,57);"/>
                </g>
                <g transform="matrix(-1,0,0,1,1500,0)">
                    <rect x="0" y="0" width="1500" height="1500" style="fill:none;stroke:rgb(35,31,32);stroke-width:1px;"/>
                </g>
            </g>
            <g id="Layer-3" serif:id="Layer 3" transform="matrix(4.16667,0,0,4.16667,0.692922,0.915742)">
                <g transform="matrix(1,0,0,1,0,1.724)">
                    <path d="M372.619,1281.97L1127.47,1281.97L1127.47,215.742L372.619,215.742L372.619,1281.97ZM367.337,210.235L1132.66,210.235L1132.66,1288.04L367.337,1288.04L367.337,210.235Z" style="fill:white;fill-rule:nonzero;"/>
                </g>
                <g transform="matrix(1,0,0,1,979.202,368.182)">
                    <path d="M0,471.817L-69.314,471.817L-69.314,188.846C-122.292,255.093 -171.964,317.205 -223.347,381.458C-274.679,317.33 -324.433,255.175 -376.964,189.549L-376.964,471.701L-447.178,471.701L-447.178,3.59C-445.878,2.481 -444.578,1.372 -443.279,0.263C-368.911,86.329 -298.553,175.839 -223.414,265.332C-150.042,176.43 -77.235,88.215 -4.429,0C-2.952,0.847 -1.476,1.694 0,2.541L0,471.817Z" style="fill:white;fill-rule:nonzero;"/>
                </g>
                <g>
                    <text x="524.13px" y="1007.87px" style="font-family:'HighTowerText-Reg', 'High Tower Text', serif;font-size:111px;fill:white;">MCNA’S</text>
                    <text x="518.32px" y="1127.3px" style="font-family:'HighTowerText-Reg', 'High Tower Text', serif;font-size:143px;fill:white;">GLASS</text>
                </g>
                <g transform="matrix(1,0,0,1,0,1.725)">
                    <path d="M1108.01,234.441L391.844,234.441L391.844,1263.75L1108.01,1263.75L1108.01,234.441ZM1114.14,1268.96L385.864,1268.96L385.864,229.319L1114.14,229.319L1114.14,1268.96Z" style="fill:rgb(192,193,196);fill-rule:nonzero;"/>
                </g>
            </g>
        </g>
    </g>
</svg>
